<svg width="64" height="64" viewBox="0 0 64 64" xmlns="http://www.w3.org/2000/svg" role="img" aria-label="Hitokoto logo">
  <defs>
    <linearGradient id="paper" x1="12" y1="8" x2="52" y2="58" gradientUnits="userSpaceOnUse">
      <stop offset="0" stop-color="#fffaf0"/>
      <stop offset="1" stop-color="#e8e5dc"/>
    </linearGradient>
    <linearGradient id="ink" x1="14" y1="20" x2="52" y2="44" gradientUnits="userSpaceOnUse">
      <stop offset="0" stop-color="#09090b"/>
      <stop offset="1" stop-color="#3f3f46"/>
    </linearGradient>
    <filter id="soft-shadow" x="-20%" y="-20%" width="140%" height="140%">
      <feDropShadow dx="0" dy="4" stdDeviation="4" flood-color="#18181b" flood-opacity="0.18"/>
    </filter>
  </defs>

  <rect x="6" y="6" width="52" height="52" rx="15" fill="url(#paper)" filter="url(#soft-shadow)"/>
  <path d="M18 19.5c-3.2 0-5.4 2.3-5.4 5.9v5.9h8.1v-8.1h-3.1c.2-1.7 1.2-2.8 3.1-3.4l-1-2.6c-.6.1-1.1.2-1.7.3Z" fill="#18181b" opacity="0.9"/>
  <path d="M46 44.5c3.2 0 5.4-2.3 5.4-5.9v-5.9h-8.1v8.1h3.1c-.2 1.7-1.2 2.8-3.1 3.4l1 2.6c.6-.1 1.1-.2 1.7-.3Z" fill="#18181b" opacity="0.9"/>
  <path d="M14.5 34.2c7.3-4.3 24.2-6.3 35.4-2.7 1.2.4 1.4 2 .3 2.6-9.7 5.9-27.2 6.3-36.2 2.9-1.2-.5-1-2.1.5-2.8Z" fill="url(#ink)"/>
  <circle cx="47.5" cy="18.5" r="4.5" fill="#d97706"/>
</svg>
